<svg xmlns="http://www.w3.org/2000/svg" xmlns:xlink="http://www.w3.org/1999/xlink" viewBox="0 0 164 36"><path d="M 32.511 16.929 L 38.868 16.929 L 38.868 4 L 29.374 4 L 26.056 16.944 L 32.512 16.928 Z M 14.395 16.929 L 8 16.929 L 8 29.858 L 32.403 29.858 C 35.974 29.858 38.868 26.964 38.868 23.393 C 38.868 19.859 36.031 16.987 32.51 16.93 L 17.493 29.788 L 20.662 16.944 Z M 14.464 4 L 29.372 4 L 14.31 16.927 C 10.811 16.845 8 13.983 8 10.464 C 8 6.894 10.894 4 14.464 4 Z M 116.931 9.806 C 115.534 10.013 115.25 10.764 115.25 11.8 L 118.976 11.8 L 118.976 14.519 L 115.25 14.519 L 115.25 25.784 L 111.73 25.784 L 111.73 14.519 L 108.832 14.519 L 108.832 11.8 L 111.73 11.8 C 111.782 10.738 112.015 9.288 113.024 8.2 C 114.499 6.698 116.699 6.568 118.976 6.801 L 118.976 9.831 C 118.329 9.728 117.552 9.702 116.931 9.806 Z M 61.114 12.836 L 64.685 11.877 C 63.96 9.987 62.718 8.511 61.14 7.656 C 59.898 6.983 58.5 6.776 57.232 6.75 C 55.99 6.75 54.645 6.853 53.299 7.475 C 51.591 8.252 50.272 10.013 50.272 12.059 C 50.272 13.353 50.763 14.752 51.876 15.684 C 52.782 16.487 54.05 17.031 55.447 17.419 L 58.914 18.429 C 59.639 18.637 60.156 18.896 60.57 19.258 C 60.958 19.595 61.14 20.061 61.14 20.553 C 61.14 21.071 60.984 21.641 60.389 22.081 C 59.716 22.599 58.474 22.884 57.491 22.884 C 56.249 22.884 54.8 22.418 54.05 21.382 C 53.584 20.812 53.273 19.983 53.118 19.077 L 49.547 20.035 C 49.832 21.252 50.323 22.547 51.229 23.661 C 52.756 25.525 54.878 26.173 57.362 26.173 C 59.328 26.173 61.036 25.94 62.459 24.981 C 63.934 23.997 64.866 22.288 64.866 20.657 C 64.866 19.129 64.245 17.756 63.132 16.694 C 62.304 15.917 61.347 15.425 59.691 14.933 L 56.456 14.001 C 55.525 13.716 54.671 13.379 54.334 13.017 C 54.101 12.784 53.972 12.473 53.972 12.136 C 53.972 11.567 54.282 10.971 54.929 10.582 C 55.473 10.246 56.301 10.039 57.181 10.064 C 58.035 10.064 58.785 10.375 59.38 10.738 C 60.26 11.256 60.648 11.903 61.114 12.836 Z M 78.776 11.8 L 75.231 11.8 L 75.231 17.886 C 75.231 18.844 75.205 19.802 75.075 20.424 C 74.92 21.201 74.558 21.822 74.04 22.211 C 73.575 22.547 73.031 22.728 72.384 22.754 C 71.427 22.754 70.676 22.495 70.185 21.977 C 69.46 21.252 69.253 20.061 69.253 18.792 L 69.253 11.8 L 65.682 11.8 L 65.682 18.792 C 65.682 21.226 65.915 23.091 67.571 24.619 C 68.684 25.629 70.34 26.225 71.893 26.173 C 73.161 26.121 74.558 25.707 75.671 24.826 L 75.671 25.784 L 78.776 25.784 Z M 93.117 13.638 C 94.204 15.011 94.748 16.85 94.748 18.792 C 94.748 20.708 94.308 22.495 93.117 23.946 C 91.979 25.37 90.142 26.173 88.304 26.173 C 86.959 26.173 85.717 25.862 84.708 25.241 L 84.708 32 L 81.163 32 L 81.163 11.8 L 84.268 11.8 L 84.268 12.68 C 85.329 11.877 86.7 11.411 88.123 11.411 C 90.064 11.411 91.927 12.162 93.117 13.638 Z M 90.323 21.796 C 90.814 21.071 91.021 19.983 91.021 18.792 C 91.021 17.601 90.763 16.513 90.271 15.788 C 89.676 14.881 88.77 14.545 87.606 14.545 C 86.648 14.545 85.82 14.856 85.251 15.529 C 84.578 16.306 84.268 17.523 84.268 18.792 C 84.268 20.061 84.578 21.304 85.251 22.055 C 85.872 22.728 86.726 23.039 87.735 23.039 C 88.718 23.039 89.728 22.702 90.323 21.796 Z M 95.982 14.389 L 99.19 15.917 C 99.268 15.788 99.371 15.658 99.475 15.555 C 100.018 14.907 100.769 14.7 101.674 14.7 C 102.399 14.674 103.098 14.804 103.667 15.14 C 104.184 15.425 104.572 15.891 104.702 16.435 L 102.451 16.746 C 102.102 16.8 101.782 16.846 101.482 16.889 C 100.064 17.09 99.1 17.228 97.819 17.911 C 96.499 18.688 95.568 20.165 95.568 21.667 C 95.568 22.884 95.93 23.583 96.654 24.593 C 97.405 25.474 98.828 26.147 100.199 26.147 C 101.26 26.147 102.476 25.888 103.46 25.292 C 104.081 24.93 104.935 24.153 105.193 23.402 L 105.193 25.784 L 108.273 25.784 L 108.273 17.005 C 108.273 16.15 108.066 15.114 107.522 14.208 C 106.384 12.292 104.314 11.437 101.752 11.437 C 99.449 11.437 97.534 12.188 96.266 13.975 C 96.206 14.05 96.147 14.142 96.092 14.226 L 96.092 14.226 C 96.052 14.288 96.014 14.346 95.982 14.389 Z M 102.192 19.75 L 104.779 19.258 C 104.779 19.388 104.754 19.906 104.598 20.475 C 104.158 22.159 102.373 22.884 100.898 22.936 C 99.76 22.987 99.009 22.262 99.061 21.434 C 99.112 20.334 100.65 20.043 102.133 19.761 Z M 119.43 14.389 L 122.639 15.917 C 122.716 15.788 122.82 15.658 122.923 15.555 C 123.467 14.907 124.217 14.7 125.123 14.7 C 125.847 14.674 126.546 14.804 127.115 15.14 C 127.633 15.425 128.021 15.891 128.15 16.435 L 125.899 16.746 C 125.551 16.8 125.23 16.846 124.93 16.889 C 123.513 17.09 122.549 17.228 121.267 17.911 C 119.948 18.688 119.016 20.165 119.016 21.667 C 119.016 22.884 119.378 23.583 120.103 24.593 C 120.853 25.474 122.276 26.147 123.648 26.147 C 124.709 26.147 125.925 25.888 126.908 25.292 C 127.529 24.93 128.383 24.153 128.642 23.402 L 128.642 25.784 L 131.721 25.784 L 131.721 17.005 C 131.721 16.15 131.514 15.114 130.971 14.208 C 129.832 12.292 127.762 11.437 125.2 11.437 C 122.898 11.437 120.983 12.188 119.715 13.975 C 119.655 14.05 119.595 14.142 119.54 14.226 C 119.5 14.288 119.463 14.346 119.43 14.389 Z M 125.64 19.75 L 128.228 19.258 C 128.228 19.388 128.202 19.906 128.047 20.475 C 127.607 22.159 125.821 22.884 124.347 22.936 C 123.208 22.987 122.458 22.262 122.509 21.434 C 122.56 20.334 124.099 20.043 125.582 19.761 Z M 144.986 15.503 L 141.57 16.332 C 141.415 15.84 140.949 15.322 140.483 15.089 C 140.069 14.856 139.552 14.726 138.983 14.726 C 138.362 14.726 137.818 14.83 137.456 15.037 C 137.068 15.296 136.99 15.529 136.99 15.684 C 136.99 15.787 137.023 15.873 137.049 15.943 L 137.06 15.973 C 137.063 15.981 137.065 15.988 137.068 15.995 C 137.275 16.254 137.844 16.487 138.543 16.694 C 139.217 16.894 139.989 17.094 140.67 17.271 L 140.742 17.29 C 140.854 17.325 140.961 17.357 141.064 17.389 L 141.067 17.39 L 141.068 17.39 C 142.04 17.688 142.667 17.881 143.485 18.559 C 144.624 19.439 145.219 20.631 145.115 22.055 C 145.012 23.376 144.287 24.515 143.123 25.266 C 142.01 25.966 140.665 26.173 139.241 26.173 C 137.327 26.173 135.696 25.681 134.403 24.308 C 133.756 23.583 132.979 22.029 132.928 21.304 L 136.266 20.475 C 136.266 20.89 136.524 21.667 136.913 22.055 C 137.534 22.728 138.388 22.858 139.241 22.858 C 139.888 22.858 140.794 22.728 141.208 22.392 C 141.467 22.159 141.519 22.003 141.57 21.744 C 141.57 21.485 141.519 21.304 141.337 21.123 C 141.001 20.786 140.354 20.579 139.888 20.449 C 139.433 20.324 138.988 20.208 138.534 20.089 L 138.534 20.089 C 138.24 20.013 137.942 19.935 137.637 19.854 C 136.369 19.517 135.593 19.18 134.868 18.611 C 133.911 17.886 133.419 16.746 133.419 15.762 C 133.419 14.001 134.506 12.602 135.981 11.955 C 137.068 11.489 138.077 11.385 139.034 11.411 C 139.992 11.411 141.053 11.618 142.01 12.11 C 143.382 12.81 144.443 14.027 144.986 15.503 Z M 151.453 14.519 L 155.49 14.519 L 155.49 11.8 L 151.453 11.8 L 151.453 7.915 L 147.934 7.915 L 147.934 11.8 L 145.036 11.8 L 145.036 14.519 L 147.934 14.519 L 147.934 19.854 C 147.934 21.382 148.012 22.728 148.607 23.842 C 149.15 24.878 150.134 25.499 151.402 25.862 C 152.437 26.147 154.377 26.095 155.49 25.784 L 155.49 22.754 C 154.74 22.858 153.886 22.884 153.213 22.832 C 152.669 22.78 152.1 22.469 151.79 21.977 C 151.479 21.485 151.453 20.682 151.453 19.595 Z" fill="rgb(255, 255, 255)"></path></svg>